<svg width="50" height="50" viewBox="0 0 50 50" fill="none" xmlns="http://www.w3.org/2000/svg">
  <g clip-path="url(#clip0_8_5568)">
    <mask id="mask0_8_5568" style="mask-type:luminance" maskUnits="userSpaceOnUse" x="0" y="0" width="50" height="37">
      <path d="M0.0133057 0.0130615H49.9604V36.8889H0.0133057V0.0130615Z" fill="white" />
    </mask>
    <g mask="url(#mask0_8_5568)">
      <path
        d="M25.0003 0.0130615C11.2008 0.0130615 0.0133057 11.2006 0.0133057 25C0.0133057 27.9263 0.517646 30.7353 1.44299 33.3447C1.44733 33.3594 1.45254 33.3733 1.45688 33.3872C1.48032 33.4514 1.50202 33.5165 1.52633 33.5816L1.52893 33.5773C1.80237 34.3264 2.10792 35.0608 2.44994 35.7752L8.26765 28.3056C8.47424 28.0408 8.87529 28.0408 9.08275 28.3056L9.77285 29.1936C9.98032 29.4584 10.3814 29.4584 10.588 29.1936L19.1305 18.2257C19.3371 17.9601 19.7381 17.9601 19.9456 18.2257L28.4873 29.1936C28.6939 29.4584 29.0949 29.4584 29.3024 29.1936L29.9925 28.3056C30.1999 28.0408 30.601 28.0408 30.8076 28.3056L37.4638 36.8525H41.2633L30.8076 23.428C30.601 23.1624 30.1999 23.1624 29.9925 23.428L29.3024 24.3143C29.0949 24.5799 28.6939 24.5799 28.4873 24.3143L19.9456 13.3473C19.7381 13.0816 19.3371 13.0816 19.1305 13.3473L10.588 24.3143C10.3814 24.5799 9.98032 24.5799 9.77285 24.3143L9.08275 23.428C8.87529 23.1624 8.47424 23.1624 8.26765 23.428L3.71904 29.2683C3.44299 27.8881 3.29803 26.461 3.29803 25C3.29803 13.0148 13.0142 3.29865 25.0003 3.29865C36.9855 3.29865 46.7017 13.0148 46.7017 25C46.7017 25.6546 46.6713 26.3013 46.6149 26.941L49.3796 30.4914C49.7763 28.724 49.9864 26.8863 49.9864 25C49.9864 11.2006 38.7998 0.0130615 25.0003 0.0130615Z"
        fill="#3FA6CB" />
    </g>
    <mask id="mask1_8_5568" style="mask-type:luminance" maskUnits="userSpaceOnUse" x="3" y="13" width="46" height="37">
      <path d="M3.12439 13.1111H48.9022V49.9861H3.12439V13.1111Z" fill="white" />
    </mask>
    <g mask="url(#mask1_8_5568)">
      <path
        d="M48.4724 33.5859L48.469 33.5841C48.5948 33.2387 48.7164 32.8906 48.8283 32.5381L41.732 23.4279C41.5254 23.1623 41.1243 23.1623 40.9178 23.4279L40.2268 24.3142C40.0193 24.5798 39.6183 24.5798 39.4117 24.3142L30.8691 13.3472C30.6634 13.0815 30.2615 13.0815 30.0549 13.3472L25.4655 19.2395L27.3657 21.6779L30.0549 18.2256C30.2615 17.96 30.6634 17.96 30.8691 18.2256L39.4117 29.1935C39.6183 29.4583 40.0193 29.4583 40.2268 29.1935L40.9178 28.3055C41.1243 28.0407 41.5254 28.0407 41.732 28.3055L45.2476 32.8194C42.1096 40.9401 34.2285 46.7013 25.0002 46.7013C16.4542 46.7013 9.06445 41.7621 5.52452 34.5833L3.31445 37.421C7.62435 44.9296 15.7216 49.9869 25.0002 49.9869C35.5523 49.9869 44.5757 43.4453 48.2389 34.1961C48.2415 34.1901 48.2441 34.1831 48.2467 34.1762C48.324 33.9809 48.3995 33.7838 48.4724 33.5859Z"
        fill="#2770AB" />
    </g>
  </g>
  <defs>
    <clipPath id="clip0_8_5568">
      <rect width="50" height="50" fill="#615f5f" />
    </clipPath>
  </defs>
</svg>