<svg width="40" height="40" viewBox="0 0 40 40" fill="#2770AB" xmlns="http://www.w3.org/2000/svg">
  <g clip-path="url(#clip0_8_5622)">
    <mask id="mask0_8_5622" style="mask-type:luminance" maskUnits="userSpaceOnUse" x="0" y="0" width="40" height="40">
      <path d="M0.0106201 0.104126H39.9683V39.9889H0.0106201V0.104126Z" fill="white" />
    </mask>
    <g mask="url(#mask0_8_5622)">
      <path
        d="M20.0002 0.104126C8.97798 0.104126 0.0106201 9.07149 0.0106201 20.0937C0.0106201 31.1159 8.97798 40.0826 20.0002 40.0826C31.0217 40.0826 39.9891 31.1159 39.9891 20.0937C39.9891 9.07149 31.0217 0.104126 20.0002 0.104126ZM32.6474 31.9145C30.0405 27.4604 25.2599 24.6694 19.9995 24.6694C14.7398 24.6694 9.95993 27.4604 7.35229 31.9145C4.45507 28.8166 2.6759 24.6604 2.6759 20.0937C2.6759 10.5409 10.4474 2.7694 20.0002 2.7694C29.5523 2.7694 37.3238 10.5409 37.3238 20.0937C37.3238 24.6604 35.5447 28.8166 32.6474 31.9145Z" />
      <path
        d="M20.0002 0.104126C8.97798 0.104126 0.0106201 9.07149 0.0106201 20.0937C0.0106201 31.1159 8.97798 40.0826 20.0002 40.0826C31.0217 40.0826 39.9891 31.1159 39.9891 20.0937C39.9891 9.07149 31.0217 0.104126 20.0002 0.104126ZM32.6474 31.9145C30.0405 27.4604 25.2599 24.6694 19.9995 24.6694C14.7398 24.6694 9.95993 27.4604 7.35229 31.9145C4.45507 28.8166 2.6759 24.6604 2.6759 20.0937C2.6759 10.5409 10.4474 2.7694 20.0002 2.7694C29.5523 2.7694 37.3238 10.5409 37.3238 20.0937C37.3238 24.6604 35.5447 28.8166 32.6474 31.9145Z" />
    </g>
    <path
      d="M20.0003 6.01318C15.5072 6.01318 11.8517 9.66874 11.8517 14.1618C11.8517 18.6555 15.5072 22.3111 20.0003 22.3111C24.4934 22.3111 28.1489 18.6555 28.1489 14.1618C28.1489 9.66874 24.4934 6.01318 20.0003 6.01318Z" />
  </g>
  <defs>
    <clipPath id="clip0_8_5622">
      <rect width="40" height="40" fill="white" />
    </clipPath>
  </defs>
</svg>