<svg width="35" height="31" viewBox="0 0 35 31" fill="none" xmlns="http://www.w3.org/2000/svg">
<g clip-path="url(#clip0_351_1941)">
<path d="M19.2561 1.08984C18.934 0.423828 18.2535 0 17.5061 0C16.7587 0 16.0842 0.423828 15.7561 1.08984L11.8489 9.1002L3.12325 10.3838C2.39408 10.4928 1.78644 11.0014 1.56162 11.6977C1.33679 12.3939 1.51908 13.1629 2.04165 13.6775L8.37325 19.9199L6.87846 28.7416C6.75693 29.4682 7.06075 30.2068 7.66231 30.6367C8.26387 31.0666 9.05988 31.1211 9.71613 30.776L17.5121 26.6285L25.3081 30.776C25.9644 31.1211 26.7604 31.0727 27.362 30.6367C27.9635 30.2008 28.2673 29.4682 28.1458 28.7416L26.645 19.9199L32.9765 13.6775C33.4991 13.1629 33.6875 12.3939 33.4566 11.6977C33.2257 11.0014 32.6241 10.4928 31.895 10.3838L23.1632 9.1002L19.2561 1.08984Z" fill="#D9D9D9"/>
</g>
<defs>
<clipPath id="clip0_351_1941">
<rect width="35" height="31" fill="white"/>
</clipPath>
</defs>
</svg>
