<svg width="230" height="230" viewBox="0 0 300 300" fill="none" xmlns="http://www.w3.org/2000/svg">
  <g clip-path="url(#clip0_130_1956)">
    <mask id="mask0_130_1956" style="mask-type:luminance" maskUnits="userSpaceOnUse" x="0" y="100" width="300"
      height="200">
      <path d="M0.0799561 100H299.762V299.917H0.0799561V100Z" fill="white" />
    </mask>
    <g mask="url(#mask0_130_1956)">
      <path
        d="M251.726 100.911H48.2623C46.6946 100.917 45.1269 101 43.5696 101.161C42.0071 101.318 40.4602 101.557 38.9237 101.87C37.3873 102.177 35.8665 102.568 34.3665 103.026C32.8665 103.484 31.3925 104.021 29.9446 104.625C28.5019 105.229 27.0852 105.901 25.705 106.646C24.3248 107.391 22.981 108.198 21.679 109.073C20.3769 109.948 19.1217 110.885 17.9133 111.885C16.6998 112.88 15.5435 113.937 14.4342 115.047C13.33 116.161 12.2779 117.323 11.2883 118.536C10.2935 119.75 9.36125 121.01 8.49666 122.318C7.62687 123.625 6.81958 124.969 6.0852 126.354C5.34562 127.74 4.67896 129.156 4.08 130.604C3.48104 132.052 2.955 133.531 2.50187 135.031C2.04354 136.531 1.66854 138.052 1.36125 139.594C1.05395 141.13 0.824788 142.682 0.673745 144.24C0.517496 145.802 0.44458 147.365 0.44458 148.937V251.219C0.449788 252.781 0.533121 254.344 0.69458 255.901C0.850829 257.453 1.09041 259 1.3977 260.531C1.7102 262.062 2.09562 263.578 2.55395 265.073C3.01229 266.568 3.53833 268.036 4.1425 269.484C4.74666 270.927 5.41333 272.339 6.15291 273.714C6.8925 275.094 7.69979 276.432 8.56958 277.729C9.43937 279.031 10.3717 280.281 11.3665 281.49C12.356 282.698 13.4081 283.859 14.5123 284.964C15.6217 286.068 16.7779 287.12 17.9862 288.109C19.1946 289.104 20.4498 290.036 21.7467 290.906C23.0487 291.776 24.3873 292.578 25.7675 293.318C27.1425 294.057 28.554 294.729 29.9967 295.328C31.4394 295.932 32.9133 296.464 34.4081 296.922C35.9029 297.38 37.4185 297.76 38.9498 298.073C40.481 298.38 42.0279 298.615 43.58 298.776C45.1373 298.932 46.6998 299.016 48.2623 299.026H251.726C253.288 299.016 254.851 298.932 256.403 298.776C257.96 298.615 259.507 298.38 261.038 298.073C262.57 297.76 264.085 297.38 265.58 296.922C267.075 296.464 268.544 295.932 269.991 295.328C271.434 294.729 272.846 294.057 274.221 293.318C275.601 292.578 276.939 291.776 278.236 290.906C279.538 290.036 280.794 289.104 282.002 288.109C283.21 287.12 284.366 286.068 285.471 284.964C286.58 283.859 287.627 282.698 288.622 281.49C289.616 280.281 290.549 279.031 291.419 277.729C292.288 276.432 293.09 275.094 293.83 273.714C294.57 272.339 295.241 270.927 295.846 269.484C296.445 268.036 296.976 266.568 297.434 265.073C297.893 263.578 298.278 262.062 298.59 260.531C298.898 259 299.132 257.453 299.294 255.901C299.455 254.344 299.538 252.781 299.544 251.219V148.937C299.544 147.365 299.465 145.802 299.314 144.24C299.158 142.682 298.929 141.13 298.627 139.594C298.32 138.052 297.939 136.531 297.486 135.031C297.033 133.531 296.507 132.052 295.908 130.604C295.309 129.156 294.643 127.74 293.903 126.354C293.163 124.969 292.361 123.625 291.491 122.318C290.622 121.01 289.695 119.75 288.7 118.536C287.705 117.323 286.658 116.161 285.549 115.047C284.445 113.937 283.283 112.88 282.075 111.885C280.866 110.885 279.611 109.948 278.309 109.073C277.007 108.198 275.663 107.391 274.283 106.646C272.903 105.906 271.486 105.229 270.038 104.625C268.59 104.021 267.122 103.484 265.622 103.026C264.122 102.568 262.601 102.177 261.064 101.87C259.528 101.557 257.981 101.318 256.419 101.161C254.856 101 253.294 100.917 251.726 100.911ZM75.481 170.807C75.481 170.016 75.5592 169.229 75.7154 168.453C75.8717 167.677 76.1008 166.927 76.4029 166.193C76.705 165.464 77.08 164.771 77.5175 164.109C77.9602 163.453 78.4602 162.844 79.0227 162.286C79.58 161.724 80.1894 161.229 80.8508 160.786C81.5071 160.349 82.205 159.979 82.9342 159.677C83.6633 159.375 84.4185 159.146 85.1946 158.99C85.9706 158.839 86.7571 158.76 87.5488 158.76C88.3404 158.76 89.1217 158.839 89.8977 158.995C90.679 159.151 91.429 159.38 92.1633 159.682C92.8925 159.984 93.5852 160.359 94.2467 160.797C94.9029 161.24 95.5123 161.74 96.0696 162.297C96.6321 162.859 97.1321 163.469 97.5696 164.125C98.0071 164.786 98.3821 165.479 98.6842 166.208C98.9863 166.943 99.2154 167.698 99.3665 168.474C99.5227 169.25 99.6008 170.031 99.6008 170.823C99.5956 171.615 99.5227 172.401 99.3665 173.177C99.2102 173.953 98.981 174.708 98.679 175.437C98.3769 176.167 98.0071 176.865 97.5644 177.521C97.1269 178.182 96.6269 178.786 96.0644 179.349C95.5071 179.906 94.8977 180.406 94.2363 180.849C93.58 181.286 92.8873 181.656 92.1529 181.964C91.4238 182.266 90.6685 182.495 89.8925 182.646C89.1165 182.802 88.33 182.88 87.5383 182.88C86.7467 182.88 85.9602 182.802 85.1842 182.651C84.4081 182.495 83.6529 182.266 82.9185 181.964C82.1894 181.661 81.4915 181.286 80.8352 180.849C80.1738 180.406 79.5644 179.906 79.0071 179.344C78.4446 178.786 77.9446 178.177 77.5071 177.516C77.0644 176.854 76.6946 176.161 76.3925 175.427C76.0904 174.693 75.8613 173.937 75.7102 173.161C75.554 172.385 75.481 171.599 75.481 170.807ZM163.861 276.984H136.127C134.762 277.021 133.403 276.984 132.049 276.885C130.689 276.781 129.34 276.615 128.002 276.375C126.658 276.141 125.335 275.839 124.023 275.469C122.715 275.104 121.424 274.672 120.158 274.172C118.893 273.677 117.653 273.115 116.439 272.495C115.231 271.875 114.054 271.198 112.908 270.458C111.768 269.719 110.663 268.927 109.596 268.078C108.533 267.229 107.512 266.328 106.538 265.38C105.564 264.427 104.643 263.432 103.768 262.391C102.893 261.349 102.07 260.266 101.304 259.141C100.538 258.016 99.8248 256.854 99.1738 255.661C98.5227 254.464 97.9342 253.24 97.4081 251.984C96.8769 250.734 96.4133 249.453 96.0123 248.156C95.6113 246.854 95.2727 245.536 95.0071 244.203C94.7363 242.87 94.5331 241.526 94.3977 240.172C94.2623 238.818 94.1946 237.458 94.1946 236.099C94.1946 234.734 94.2623 233.38 94.3977 232.026C94.5331 230.672 94.7363 229.323 95.0071 227.99C95.2727 226.656 95.6113 225.339 96.0123 224.042C96.4133 222.74 96.8769 221.464 97.4081 220.208C97.9342 218.953 98.5227 217.729 99.1738 216.531C99.8248 215.339 100.538 214.177 101.304 213.052C102.07 211.927 102.893 210.844 103.768 209.802C104.643 208.76 105.564 207.766 106.538 206.812C107.512 205.865 108.533 204.964 109.596 204.115C110.663 203.266 111.768 202.474 112.908 201.734C114.054 201 115.231 200.318 116.439 199.698C117.653 199.078 118.893 198.516 120.158 198.021C121.424 197.526 122.715 197.094 124.023 196.724C125.335 196.354 126.658 196.052 128.002 195.818C129.34 195.578 130.689 195.411 132.049 195.312C133.403 195.208 134.762 195.177 136.127 195.208H163.861C165.226 195.177 166.58 195.208 167.939 195.312C169.299 195.411 170.648 195.578 171.986 195.818C173.325 196.052 174.653 196.354 175.96 196.724C177.273 197.094 178.559 197.526 179.83 198.021C181.096 198.516 182.335 199.078 183.544 199.698C184.757 200.318 185.934 201 187.08 201.734C188.221 202.474 189.325 203.266 190.387 204.115C191.455 204.964 192.471 205.865 193.45 206.812C194.424 207.766 195.346 208.76 196.221 209.802C197.096 210.844 197.919 211.927 198.684 213.052C199.45 214.177 200.158 215.339 200.809 216.531C201.46 217.729 202.054 218.953 202.58 220.208C203.111 221.464 203.575 222.74 203.976 224.042C204.377 225.339 204.71 226.656 204.981 227.99C205.252 229.323 205.455 230.672 205.59 232.026C205.726 233.38 205.794 234.734 205.794 236.099C205.794 237.458 205.726 238.818 205.59 240.172C205.455 241.526 205.252 242.87 204.981 244.203C204.71 245.536 204.377 246.854 203.976 248.156C203.575 249.453 203.111 250.734 202.58 251.984C202.054 253.24 201.46 254.464 200.809 255.661C200.158 256.854 199.45 258.016 198.684 259.141C197.919 260.266 197.096 261.349 196.221 262.391C195.346 263.432 194.424 264.427 193.45 265.38C192.471 266.328 191.455 267.229 190.387 268.078C189.325 268.927 188.221 269.719 187.08 270.458C185.934 271.198 184.757 271.875 183.544 272.495C182.335 273.115 181.096 273.677 179.83 274.172C178.559 274.672 177.273 275.104 175.96 275.469C174.653 275.839 173.325 276.141 171.986 276.375C170.648 276.615 169.299 276.781 167.939 276.885C166.58 276.984 165.226 277.021 163.861 276.984ZM212.434 182.88C211.643 182.88 210.861 182.802 210.085 182.646C209.309 182.49 208.559 182.26 207.83 181.958C207.101 181.656 206.403 181.281 205.747 180.844C205.09 180.406 204.486 179.906 203.924 179.344C203.366 178.786 202.866 178.177 202.429 177.521C201.991 176.865 201.622 176.172 201.32 175.437C201.018 174.708 200.788 173.958 200.632 173.182C200.481 172.406 200.403 171.625 200.403 170.833C200.403 170.042 200.481 169.26 200.632 168.484C200.788 167.708 201.018 166.958 201.32 166.224C201.622 165.495 201.991 164.802 202.429 164.146C202.866 163.49 203.366 162.88 203.924 162.318C204.486 161.76 205.09 161.26 205.747 160.823C206.403 160.38 207.101 160.01 207.83 159.708C208.559 159.406 209.309 159.177 210.085 159.021C210.861 158.865 211.643 158.786 212.434 158.786C213.226 158.786 214.007 158.865 214.783 159.016C215.559 159.172 216.309 159.396 217.044 159.698C217.773 160 218.465 160.37 219.127 160.807C219.783 161.245 220.393 161.745 220.95 162.302C221.512 162.859 222.012 163.469 222.45 164.125C222.893 164.781 223.262 165.474 223.57 166.203C223.872 166.932 224.101 167.682 224.257 168.458C224.413 169.234 224.491 170.016 224.491 170.807C224.491 171.599 224.413 172.385 224.262 173.161C224.106 173.937 223.877 174.693 223.575 175.422C223.273 176.156 222.903 176.849 222.46 177.51C222.023 178.167 221.523 178.776 220.96 179.339C220.403 179.901 219.794 180.401 219.132 180.839C218.476 181.281 217.783 181.651 217.049 181.958C216.32 182.26 215.564 182.49 214.788 182.646C214.012 182.802 213.226 182.88 212.434 182.88Z"
        fill="#D3ECFF" />
    </g>
    <path d="M131.945 83.6198H168.002V96.0834H131.945V83.6198Z" fill="#D3ECFF" />
    <path d="M131.945 66.0573H168.002V78.5729H131.945V66.0573Z" fill="#D3ECFF" />
    <path d="M143.767 44.5H156.163V62.5521H143.767V44.5Z" fill="#D3ECFF" />
    <mask id="mask1_130_1956" style="mask-type:luminance" maskUnits="userSpaceOnUse" x="124" y="0" width="53"
      height="52">
      <path d="M124.08 0.078125H176.08V52H124.08V0.078125Z" fill="white" />
    </mask>
    <g mask="url(#mask1_130_1956)">
      <path
        d="M149.908 51.7292C149.059 51.724 148.21 51.6771 147.366 51.5886C146.523 51.5052 145.684 51.375 144.851 51.2031C144.023 51.0365 143.2 50.8229 142.387 50.5729C141.575 50.3229 140.778 50.0365 139.997 49.7084C139.21 49.3802 138.444 49.0104 137.7 48.6094C136.95 48.2031 136.226 47.7656 135.523 47.2917C134.819 46.8125 134.137 46.3073 133.486 45.7656C132.83 45.224 132.205 44.6511 131.606 44.0469C131.007 43.4427 130.439 42.8125 129.903 42.1563C129.366 41.4948 128.866 40.8125 128.398 40.1042C127.929 39.3959 127.497 38.6667 127.096 37.9167C126.7 37.1667 126.34 36.3959 126.017 35.6146C125.694 34.8281 125.413 34.0261 125.168 33.2136C124.924 32.4011 124.721 31.5781 124.559 30.7448C124.398 29.9063 124.278 29.0677 124.194 28.224C124.116 27.3802 124.075 26.5313 124.08 25.6823C124.08 24.8334 124.127 23.9844 124.21 23.1406C124.299 22.2969 124.424 21.4584 124.596 20.625C124.762 19.7917 124.971 18.9688 125.221 18.1563C125.471 17.3438 125.757 16.5469 126.085 15.7656C126.413 14.9792 126.778 14.2136 127.179 13.4688C127.58 12.7188 128.017 11.9896 128.491 11.2865C128.965 10.5834 129.476 9.90106 130.012 9.24481C130.554 8.59377 131.127 7.96356 131.726 7.3646C132.33 6.76565 132.96 6.19794 133.616 5.66148C134.278 5.12502 134.96 4.61981 135.663 4.15106C136.372 3.68231 137.101 3.24481 137.851 2.84898C138.601 2.44794 139.366 2.08856 140.153 1.76565C140.939 1.43752 141.736 1.15627 142.554 0.911479C143.366 0.666687 144.189 0.463561 145.023 0.296895C145.856 0.135436 146.694 0.0104367 147.538 -0.0728967C148.387 -0.151021 149.231 -0.192688 150.08 -0.192688C150.929 -0.192688 151.778 -0.145813 152.622 -0.06248C153.471 0.0208533 154.309 0.145853 155.142 0.31252C155.976 0.479187 156.793 0.68752 157.606 0.93752C158.418 1.18231 159.221 1.46877 160.002 1.79689C160.788 2.11981 161.554 2.48439 162.304 2.88544C163.049 3.28648 163.778 3.72398 164.486 4.19794C165.189 4.6719 165.872 5.1771 166.528 5.71356C167.184 6.25523 167.809 6.82294 168.413 7.4271C169.012 8.02606 169.58 8.65627 170.116 9.31252C170.658 9.96877 171.163 10.6511 171.632 11.3594C172.106 12.0625 172.538 12.7917 172.939 13.5417C173.34 14.2917 173.705 15.0573 174.028 15.8438C174.351 16.6302 174.637 17.4271 174.882 18.2396C175.132 19.0521 175.335 19.875 175.502 20.7084C175.668 21.5417 175.793 22.3802 175.877 23.224C175.955 24.0729 175.997 24.9167 175.997 25.7656C175.997 26.6198 175.955 27.474 175.872 28.3177C175.788 29.1667 175.663 30.0104 175.497 30.849C175.33 31.6823 175.122 32.5104 174.872 33.3281C174.627 34.1406 174.34 34.9427 174.012 35.7344C173.684 36.5209 173.319 37.2917 172.913 38.0417C172.512 38.7917 172.075 39.5209 171.596 40.2292C171.122 40.9375 170.611 41.625 170.069 42.2813C169.528 42.9375 168.955 43.5677 168.351 44.1719C167.747 44.7709 167.111 45.3438 166.45 45.8802C165.788 46.4219 165.106 46.9271 164.392 47.3959C163.684 47.8698 162.95 48.3073 162.2 48.7031C161.444 49.1042 160.674 49.4636 159.882 49.7865C159.096 50.1146 158.293 50.3959 157.476 50.6406C156.658 50.8854 155.83 51.0886 154.991 51.25C154.153 51.4115 153.309 51.5365 152.46 51.6146C151.611 51.6927 150.762 51.7344 149.908 51.7292ZM149.908 12.2188C149.017 12.2136 148.132 12.3021 147.252 12.474C146.377 12.6511 145.528 12.9063 144.7 13.25C143.872 13.5886 143.09 14.0104 142.346 14.5052C141.601 15 140.913 15.5625 140.283 16.1979C139.648 16.8281 139.085 17.5156 138.59 18.2604C138.09 19 137.674 19.7865 137.33 20.6094C136.986 21.4375 136.731 22.2865 136.554 23.1667C136.382 24.0417 136.293 24.9271 136.293 25.8177C136.293 26.7136 136.382 27.599 136.554 28.474C136.731 29.349 136.986 30.2031 137.33 31.0261C137.674 31.8542 138.09 32.6406 138.59 33.3802C139.085 34.125 139.648 34.8125 140.283 35.4427C140.913 36.0729 141.601 36.6406 142.346 37.1354C143.09 37.6302 143.872 38.0469 144.7 38.3906C145.528 38.7344 146.377 38.9896 147.252 39.1615C148.132 39.3386 149.017 39.4219 149.908 39.4219C150.804 39.4219 151.689 39.3334 152.564 39.1563C153.439 38.9844 154.293 38.724 155.116 38.3802C155.944 38.0365 156.726 37.6198 157.471 37.1198C158.21 36.625 158.898 36.0573 159.528 35.4271C160.158 34.7917 160.721 34.1042 161.221 33.3594C161.715 32.6146 162.132 31.8281 162.471 31.0052C162.814 30.1771 163.069 29.3281 163.241 28.4479C163.413 27.5729 163.502 26.6875 163.502 25.7917C163.502 24.9011 163.413 24.0156 163.241 23.1406C163.064 22.2656 162.809 21.4167 162.471 20.5938C162.127 19.7709 161.71 18.9844 161.21 18.2448C160.715 17.5 160.153 16.8177 159.523 16.1823C158.892 15.5521 158.205 14.9896 157.46 14.4948C156.721 14 155.934 13.5834 155.111 13.2448C154.288 12.9011 153.434 12.6459 152.559 12.474C151.684 12.3021 150.804 12.2136 149.908 12.2188Z"
        fill="#D3ECFF" />
    </g>
  </g>
  <defs>
    <clipPath id="clip0_130_1956">
      <rect width="300" height="300" fill="white" />
    </clipPath>
  </defs>
</svg>