<svg xmlns="http://www.w3.org/2000/svg" xmlns:xlink="http://www.w3.org/1999/xlink" width="40" zoomAndPan="magnify" viewBox="0 0 30 30.000001" height="40" preserveAspectRatio="xMidYMid meet" version="1.0"><defs><clipPath id="a737347e74"><path d="M 7.117188 2.902344 L 23.085938 2.902344 L 23.085938 26.128906 L 7.117188 26.128906 Z M 7.117188 2.902344 " clip-rule="nonzero"/></clipPath></defs><g clip-path="url(#a737347e74)"><path fill="#eb5c5d" d="M 23.070312 10.773438 C 23.070312 6.429688 19.503906 2.90625 15.101562 2.90625 C 10.699219 2.90625 7.132812 6.429688 7.132812 10.773438 C 7.132812 12.011719 7.421875 13.179688 7.9375 14.21875 L 14.554688 26.132812 L 22.089844 14.558594 C 22.714844 13.433594 23.070312 12.144531 23.070312 10.773438 Z M 23.070312 10.773438 " fill-opacity="1" fill-rule="nonzero"/></g><path fill="#9b3f3d" d="M 20.605469 10.515625 C 20.605469 10.871094 20.570312 11.226562 20.5 11.574219 C 20.429688 11.925781 20.324219 12.265625 20.1875 12.59375 C 20.046875 12.925781 19.878906 13.238281 19.679688 13.535156 C 19.476562 13.832031 19.25 14.105469 18.992188 14.359375 C 18.738281 14.609375 18.460938 14.835938 18.160156 15.035156 C 17.859375 15.230469 17.542969 15.398438 17.207031 15.535156 C 16.875 15.671875 16.53125 15.773438 16.175781 15.84375 C 15.820312 15.914062 15.464844 15.949219 15.101562 15.949219 C 14.738281 15.949219 14.382812 15.914062 14.027344 15.84375 C 13.671875 15.773438 13.328125 15.671875 12.996094 15.535156 C 12.660156 15.398438 12.34375 15.230469 12.042969 15.035156 C 11.742188 14.835938 11.464844 14.609375 11.210938 14.359375 C 10.953125 14.105469 10.726562 13.832031 10.523438 13.535156 C 10.324219 13.238281 10.15625 12.925781 10.015625 12.59375 C 9.878906 12.265625 9.773438 11.925781 9.703125 11.574219 C 9.632812 11.226562 9.597656 10.871094 9.597656 10.515625 C 9.597656 10.160156 9.632812 9.804688 9.703125 9.457031 C 9.773438 9.105469 9.878906 8.765625 10.015625 8.4375 C 10.15625 8.105469 10.324219 7.792969 10.523438 7.496094 C 10.726562 7.199219 10.953125 6.925781 11.210938 6.671875 C 11.464844 6.421875 11.742188 6.195312 12.042969 5.996094 C 12.34375 5.800781 12.660156 5.632812 12.996094 5.496094 C 13.328125 5.359375 13.671875 5.253906 14.027344 5.1875 C 14.382812 5.117188 14.738281 5.082031 15.101562 5.082031 C 15.464844 5.082031 15.820312 5.117188 16.175781 5.1875 C 16.53125 5.253906 16.875 5.359375 17.207031 5.496094 C 17.542969 5.632812 17.859375 5.800781 18.160156 5.996094 C 18.460938 6.195312 18.738281 6.421875 18.992188 6.671875 C 19.25 6.925781 19.476562 7.199219 19.679688 7.496094 C 19.878906 7.792969 20.046875 8.105469 20.1875 8.4375 C 20.324219 8.765625 20.429688 9.105469 20.5 9.457031 C 20.570312 9.804688 20.605469 10.160156 20.605469 10.515625 Z M 20.605469 10.515625 " fill-opacity="1" fill-rule="nonzero"/><path fill="#78302d" d="M 18.550781 10.515625 C 18.550781 10.96875 18.464844 11.402344 18.289062 11.820312 C 18.113281 12.234375 17.863281 12.605469 17.542969 12.925781 C 17.21875 13.242188 16.84375 13.488281 16.421875 13.664062 C 16 13.835938 15.558594 13.921875 15.101562 13.921875 C 14.644531 13.921875 14.203125 13.835938 13.78125 13.664062 C 13.359375 13.488281 12.984375 13.242188 12.660156 12.925781 C 12.339844 12.605469 12.089844 12.234375 11.914062 11.820312 C 11.738281 11.402344 11.652344 10.96875 11.652344 10.515625 C 11.652344 10.0625 11.738281 9.628906 11.914062 9.210938 C 12.089844 8.792969 12.339844 8.425781 12.660156 8.105469 C 12.984375 7.789062 13.359375 7.542969 13.78125 7.367188 C 14.203125 7.195312 14.644531 7.109375 15.101562 7.109375 C 15.558594 7.109375 16 7.195312 16.421875 7.367188 C 16.84375 7.542969 17.21875 7.789062 17.542969 8.105469 C 17.863281 8.425781 18.113281 8.792969 18.289062 9.210938 C 18.464844 9.628906 18.550781 10.0625 18.550781 10.515625 Z M 18.550781 10.515625 " fill-opacity="1" fill-rule="nonzero"/><path fill="#ffffff" d="M 17.609375 10.78125 C 17.609375 11.152344 17.535156 11.511719 17.390625 11.855469 C 17.25 12.195312 17.042969 12.5 16.777344 12.761719 C 16.511719 13.023438 16.203125 13.226562 15.859375 13.371094 C 15.511719 13.511719 15.148438 13.582031 14.773438 13.582031 C 14.394531 13.582031 14.035156 13.511719 13.6875 13.371094 C 13.339844 13.226562 13.03125 13.023438 12.765625 12.761719 C 12.5 12.5 12.296875 12.195312 12.152344 11.855469 C 12.007812 11.511719 11.9375 11.152344 11.9375 10.78125 C 11.9375 10.410156 12.007812 10.054688 12.152344 9.710938 C 12.296875 9.367188 12.5 9.066406 12.765625 8.804688 C 13.03125 8.539062 13.339844 8.339844 13.6875 8.195312 C 14.035156 8.054688 14.394531 7.984375 14.773438 7.984375 C 15.148438 7.984375 15.511719 8.054688 15.859375 8.195312 C 16.203125 8.339844 16.511719 8.539062 16.777344 8.804688 C 17.042969 9.066406 17.25 9.367188 17.390625 9.710938 C 17.535156 10.054688 17.609375 10.410156 17.609375 10.78125 Z M 17.609375 10.78125 " fill-opacity="1" fill-rule="nonzero"/></svg>