<svg xmlns="http://www.w3.org/2000/svg" xmlns:xlink="http://www.w3.org/1999/xlink" width="40" zoomAndPan="magnify" viewBox="0 0 30 30.000001" height="40" preserveAspectRatio="xMidYMid meet" version="1.0"><defs><clipPath id="f42a83d601"><path d="M 0.484375 3.957031 L 29.515625 3.957031 L 29.515625 25.003906 L 0.484375 25.003906 Z M 0.484375 3.957031 " clip-rule="nonzero"/></clipPath></defs><g clip-path="url(#f42a83d601)"><path fill="#000000" d="M 27.535156 3.957031 L 2.464844 3.957031 C 1.375 3.957031 0.484375 4.84375 0.484375 5.929688 L 0.484375 23.03125 C 0.484375 24.113281 1.375 25.003906 2.464844 25.003906 L 27.535156 25.003906 C 28.625 25.003906 29.515625 24.113281 29.515625 23.03125 L 29.515625 5.929688 C 29.515625 4.84375 28.625 3.957031 27.535156 3.957031 Z M 2.464844 5.273438 L 27.535156 5.273438 C 27.898438 5.273438 28.195312 5.566406 28.195312 5.929688 L 28.195312 20.464844 L 21.070312 13.363281 C 20.804688 13.097656 20.410156 13.097656 20.148438 13.363281 L 16.484375 17.011719 L 11.339844 11.882812 C 11.074219 11.617188 10.679688 11.617188 10.414062 11.882812 L 1.804688 20.464844 L 1.804688 5.929688 C 1.804688 5.566406 2.101562 5.273438 2.464844 5.273438 Z M 27.535156 23.6875 L 2.464844 23.6875 C 2.101562 23.6875 1.804688 23.390625 1.804688 23.03125 L 1.804688 22.304688 L 10.875 13.261719 L 16.023438 18.394531 C 16.285156 18.65625 16.683594 18.65625 16.945312 18.394531 L 20.609375 14.742188 L 28.195312 22.304688 L 28.195312 23.03125 C 28.195312 23.390625 27.898438 23.6875 27.535156 23.6875 Z M 27.535156 23.6875 " fill-opacity="1" fill-rule="nonzero"/></g><path fill="#000000" d="M 21.597656 12.179688 C 23.246094 12.179688 24.566406 10.863281 24.566406 9.21875 C 24.566406 7.574219 23.246094 6.257812 21.597656 6.257812 C 19.949219 6.257812 18.628906 7.574219 18.628906 9.21875 C 18.628906 10.863281 19.949219 12.179688 21.597656 12.179688 Z M 21.597656 7.574219 C 22.523438 7.574219 23.246094 8.296875 23.246094 9.21875 C 23.246094 10.140625 22.523438 10.863281 21.597656 10.863281 C 20.675781 10.863281 19.949219 10.140625 19.949219 9.21875 C 19.949219 8.296875 20.675781 7.574219 21.597656 7.574219 Z M 21.597656 7.574219 " fill-opacity="1" fill-rule="nonzero"/></svg>