<svg width="40" height="40" viewBox="0 0 40 40" fill="none" xmlns="http://www.w3.org/2000/svg">
<path fill-rule="evenodd" clip-rule="evenodd" d="M6.66658 18.3333C6.66658 11.8899 11.8899 6.66658 18.3333 6.66658C24.7766 6.66658 29.9999 11.8899 29.9999 18.3333C29.9999 21.4772 28.7564 24.3306 26.7343 26.4286C26.6779 26.472 26.6237 26.5196 26.5721 26.5712C26.5204 26.6229 26.4728 26.6772 26.4293 26.7336C24.3313 28.7561 21.4775 29.9999 18.3333 29.9999C11.8899 29.9999 6.66658 24.7766 6.66658 18.3333ZM27.6965 30.0527C25.1303 32.1056 21.8751 33.3332 18.3333 33.3332C10.049 33.3332 3.33325 26.6175 3.33325 18.3333C3.33325 10.049 10.049 3.33325 18.3333 3.33325C26.6175 3.33325 33.3332 10.049 33.3332 18.3333C33.3332 21.8747 32.1059 25.1296 30.0534 27.6956L36.1791 33.8212C36.83 34.4721 36.83 35.5274 36.1791 36.1783C35.5282 36.8291 34.4729 36.8291 33.8221 36.1783L27.6965 30.0527Z" fill="#44444F"/>
</svg>
