<svg width="40" height="40" viewBox="0 0 40 40" fill="none" xmlns="http://www.w3.org/2000/svg">
<mask id="mask0_206_1947" style="mask-type:luminance" maskUnits="userSpaceOnUse" x="3" y="0" width="34" height="39">
<path d="M3.68225 0H36.5833V38.7031H3.68225V0Z" fill="white"/>
</mask>
<g mask="url(#mask0_206_1947)">
<path d="M30.7552 27.1406C29.0416 27.1406 27.5052 27.8698 26.4375 29.0365L14.8645 21.6406C15.1718 20.9375 15.3437 20.1667 15.3437 19.3542C15.3437 18.5417 15.1718 17.7656 14.8645 17.0677L26.4375 9.67187C27.5052 10.8333 29.0416 11.5677 30.7552 11.5677C33.9739 11.5677 36.5833 8.97917 36.5833 5.78125C36.5833 2.58854 33.9739 0 30.7552 0C27.5312 0 24.9218 2.58854 24.9218 5.78125C24.9218 6.59375 25.0937 7.36979 25.3958 8.07292L13.8229 15.4635C12.7604 14.3021 11.2187 13.5729 9.51037 13.5729C6.29163 13.5729 3.68225 16.1615 3.68225 19.3542C3.68225 22.5469 6.29163 25.1354 9.51037 25.1354C11.2187 25.1354 12.7604 24.4062 13.8229 23.2448L25.3958 30.6354C25.0937 31.3385 24.9218 32.1094 24.9218 32.9219C24.9218 36.1146 27.5312 38.7031 30.7552 38.7031C33.9739 38.7031 36.5833 36.1146 36.5833 32.9219C36.5833 29.7292 33.9739 27.1406 30.7552 27.1406Z" fill="#FFFFFF"/>
</g>
</svg>
