<svg width="40" height="40" viewBox="0 0 40 40" fill="none" xmlns="http://www.w3.org/2000/svg">
  <path fill-rule="evenodd" clip-rule="evenodd"
    d="M20.0001 9C18.1436 9 16.3631 9.7375 15.0503 11.0503C13.7376 12.363 13.0001 14.1435 13.0001 16C13.0001 19.3527 12.283 21.4346 11.6222 22.6461C11.2904 23.2544 10.9673 23.6535 10.7429 23.8904C10.6304 24.0091 10.542 24.0878 10.4888 24.1322C10.4622 24.1544 10.4443 24.168 10.4366 24.1737L10.4338 24.1758C10.0753 24.4221 9.91664 24.8725 10.043 25.2898C10.1707 25.7115 10.5594 26 11.0001 26H29.0001C29.4407 26 29.8295 25.7115 29.9572 25.2898C30.0835 24.8725 29.9249 24.4221 29.5664 24.1758L29.5635 24.1737C29.5558 24.168 29.538 24.1544 29.5114 24.1322C29.4581 24.0878 29.3698 24.0091 29.2573 23.8904C29.0329 23.6535 28.7098 23.2544 28.378 22.6461C27.7171 21.4346 27.0001 19.3527 27.0001 16C27.0001 14.1435 26.2626 12.363 24.9498 11.0503C23.6371 9.7375 21.8566 9 20.0001 9ZM26.8508 24H13.1494C13.2255 23.8753 13.3019 23.7434 13.378 23.6039C14.2171 22.0654 15.0001 19.6473 15.0001 16C15.0001 14.6739 15.5269 13.4021 16.4645 12.4645C17.4022 11.5268 18.674 11 20.0001 11C21.3262 11 22.5979 11.5268 23.5356 12.4645C24.4733 13.4021 25.0001 14.6739 25.0001 16C25.0001 19.6473 25.783 22.0654 26.6222 23.6039C26.6983 23.7434 26.7747 23.8753 26.8508 24ZM18.2695 28C17.9119 28 17.5815 28.191 17.403 28.5009C17.2245 28.8108 17.2251 29.1924 17.4045 29.5018C17.6682 29.9564 18.0468 30.3337 18.5022 30.5961C18.9576 30.8584 19.474 30.9965 19.9995 30.9965C20.5251 30.9965 21.0414 30.8584 21.4969 30.5961C21.9523 30.3337 22.3308 29.9564 22.5945 29.5018C22.774 29.1924 22.7746 28.8108 22.5961 28.5009C22.4176 28.191 22.0872 28 21.7295 28H18.2695Z"
    fill="#2770AB" />
  <rect x="1" y="1" width="38" height="38" rx="19" stroke="#2770AB" stroke-width="2" />
</svg>