<svg xmlns="http://www.w3.org/2000/svg" width="39" height="40" viewBox="0 0 39 40" fill="#2770AB">
  <g clip-path="url(#clip0_102_1977)">
    <mask id="mask0_102_1977" style="mask-type:luminance" maskUnits="userSpaceOnUse" x="28" y="0" width="12"
      height="39">
      <path d="M28 0H39.1973V38.7083H28V0Z" fill="white" />
    </mask>
    <g mask="url(#mask0_102_1977)">
      <path
        d="M34.2918 37.4219V20.4635C34.8301 20.3229 35.3328 20.0937 35.8 19.7813C36.2621 19.4687 36.6684 19.0885 37.0086 18.6354C37.3488 18.1875 37.6129 17.6927 37.7906 17.151C37.9734 16.6094 38.0648 16.0573 38.0648 15.4844C38.0648 14.9115 37.9734 14.3594 37.7906 13.8177C37.6129 13.276 37.3488 12.7812 37.0086 12.3333C36.6684 11.8802 36.2621 11.5 35.8 11.1875C35.3328 10.875 34.8301 10.6458 34.2918 10.5052V1.29167C34.2918 1.11979 34.2613 0.953125 34.1953 0.796875C34.1293 0.640625 34.0379 0.5 33.9211 0.380208C33.8043 0.255208 33.6672 0.161459 33.5148 0.0989584C33.3625 0.03125 33.2 0 33.0324 0C32.8648 0 32.7074 0.03125 32.55 0.0989584C32.3977 0.161459 32.2605 0.255208 32.1438 0.380208C32.027 0.5 31.9355 0.640625 31.8695 0.796875C31.8086 0.953125 31.773 1.11979 31.773 1.29167V10.5052C31.2348 10.6458 30.732 10.875 30.2648 11.1875C29.8027 11.5 29.3965 11.8802 29.0563 12.3333C28.716 12.7812 28.452 13.276 28.2742 13.8177C28.0914 14.3594 28 14.9115 28 15.4844C28 16.0573 28.0914 16.6094 28.2742 17.151C28.452 17.6927 28.716 18.1875 29.0563 18.6354C29.3965 19.0885 29.8027 19.4687 30.2648 19.7813C30.732 20.0937 31.2348 20.3229 31.773 20.4635V37.4219C31.773 37.5885 31.8086 37.7552 31.8695 37.9115C31.9355 38.0729 32.027 38.2083 32.1438 38.3333C32.2605 38.4531 32.3977 38.5469 32.55 38.6094C32.7074 38.6771 32.8648 38.7083 33.0324 38.7083C33.2 38.7083 33.3625 38.6771 33.5148 38.6094C33.6672 38.5469 33.8043 38.4531 33.9211 38.3333C34.0379 38.2083 34.1293 38.0729 34.1953 37.9115C34.2613 37.7552 34.2918 37.5885 34.2918 37.4219ZM30.5188 15.4844C30.5188 15.1406 30.5797 14.8125 30.7066 14.4948C30.8336 14.1823 31.0164 13.901 31.2551 13.6615C31.4887 13.4167 31.7629 13.2292 32.0676 13.099C32.3773 12.9687 32.6973 12.901 33.0324 12.901C33.3676 12.901 33.6875 12.9687 33.9973 13.099C34.302 13.2292 34.5762 13.4167 34.8098 13.6615C35.0484 13.901 35.2313 14.1823 35.3582 14.4948C35.4852 14.8125 35.5512 15.1406 35.5512 15.4844C35.5512 15.8281 35.4852 16.1562 35.3582 16.474C35.2313 16.7865 35.0484 17.0677 34.8098 17.3073C34.5762 17.5521 34.302 17.7396 33.9973 17.8698C33.6875 18 33.3676 18.0625 33.0324 18.0625C32.6973 18.0625 32.3773 18 32.0676 17.8698C31.7629 17.7396 31.4887 17.5521 31.2551 17.3073C31.0164 17.0677 30.8336 16.7865 30.7066 16.474C30.5797 16.1562 30.5188 15.8281 30.5188 15.4844Z"
         />
    </g>
    <path
      d="M20.2918 37.4219V35.9479C20.8301 35.8073 21.3328 35.5781 21.8 35.2656C22.2621 34.9531 22.6684 34.5729 23.0086 34.1198C23.3488 33.6719 23.6129 33.1719 23.7906 32.6354C23.9734 32.0937 24.0648 31.5365 24.0648 30.9687C24.0648 30.3958 23.9734 29.8437 23.7906 29.3021C23.6129 28.7604 23.3488 28.2656 23.0086 27.8177C22.6684 27.3646 22.2621 26.9844 21.8 26.6719C21.3328 26.3594 20.8301 26.1302 20.2918 25.9896V1.29167C20.2918 1.11979 20.2562 0.953125 20.1953 0.796875C20.1293 0.640625 20.0379 0.5 19.9211 0.380208C19.8043 0.255208 19.6672 0.161459 19.5148 0.0989584C19.3574 0.03125 19.2 0 19.0324 0C18.8648 0 18.7074 0.03125 18.55 0.0989584C18.3977 0.161459 18.2605 0.255208 18.1437 0.380208C18.027 0.5 17.9355 0.640625 17.8695 0.796875C17.8086 0.953125 17.773 1.11979 17.773 1.29167V25.9896C17.2348 26.1302 16.732 26.3594 16.2648 26.6719C15.8027 26.9844 15.3965 27.3646 15.0562 27.8177C14.716 28.2656 14.452 28.7604 14.2742 29.3021C14.0914 29.8437 14 30.3958 14 30.9687C14 31.5365 14.0914 32.0937 14.2742 32.6354C14.452 33.1719 14.716 33.6719 15.0562 34.1198C15.3965 34.5729 15.8027 34.9531 16.2648 35.2656C16.732 35.5781 17.2348 35.8073 17.773 35.9479V37.4219C17.773 37.5885 17.8086 37.7552 17.8695 37.9115C17.9355 38.0729 18.027 38.2083 18.1437 38.3333C18.2605 38.4531 18.3977 38.5469 18.55 38.6094C18.7074 38.6771 18.8648 38.7083 19.0324 38.7083C19.2 38.7083 19.3574 38.6771 19.5148 38.6094C19.6672 38.5469 19.8043 38.4531 19.9211 38.3333C20.0379 38.2083 20.1293 38.0729 20.1953 37.9115C20.2562 37.7552 20.2918 37.5885 20.2918 37.4219ZM16.5187 30.9687C16.5187 30.625 16.5797 30.2969 16.7066 29.9792C16.8336 29.6615 17.0164 29.3854 17.2551 29.1406C17.4887 28.901 17.7629 28.7135 18.0676 28.5833C18.3773 28.4531 18.6973 28.3854 19.0324 28.3854C19.3676 28.3854 19.6875 28.4531 19.9973 28.5833C20.302 28.7135 20.5762 28.901 20.8098 29.1406C21.0484 29.3854 21.2313 29.6615 21.3582 29.9792C21.4852 30.2969 21.5461 30.625 21.5461 30.9687C21.5461 31.3125 21.4852 31.6406 21.3582 31.9531C21.2313 32.2708 21.0484 32.5521 20.8098 32.7917C20.5762 33.0365 20.302 33.2187 19.9973 33.3542C19.6875 33.4844 19.3676 33.5469 19.0324 33.5469C18.6973 33.5469 18.3773 33.4844 18.0676 33.3542C17.7629 33.2187 17.4887 33.0365 17.2551 32.7917C17.0164 32.5521 16.8336 32.2708 16.7066 31.9531C16.5797 31.6406 16.5187 31.3125 16.5187 30.9687Z"
       />
    <path
      d="M6.2918 37.4219V14.0104C6.83008 13.8698 7.33281 13.6406 7.8 13.3281C8.26211 13.0156 8.66836 12.6354 9.00859 12.1823C9.34883 11.7344 9.61289 11.2396 9.79062 10.6979C9.97344 10.1563 10.0648 9.60417 10.0648 9.03125C10.0648 8.46354 9.97344 7.90625 9.79062 7.36458C9.61289 6.82812 9.34883 6.32812 9.00859 5.88021C8.66836 5.42708 8.26211 5.04687 7.8 4.73437C7.33281 4.42187 6.83008 4.19271 6.2918 4.05208V1.29167C6.2918 1.11979 6.25625 0.953125 6.19531 0.796875C6.1293 0.640625 6.03789 0.5 5.92109 0.380208C5.8043 0.255208 5.66719 0.161459 5.51484 0.0989584C5.35742 0.03125 5.2 0 5.03242 0C4.86484 0 4.70234 0.03125 4.55 0.0989584C4.39766 0.161459 4.26055 0.255208 4.14375 0.380208C4.02695 0.5 3.93555 0.640625 3.86953 0.796875C3.80352 0.953125 3.77305 1.11979 3.77305 1.29167V4.05208C3.23476 4.19271 2.73203 4.42187 2.26484 4.73437C1.80273 5.04687 1.39648 5.42708 1.05625 5.88021C0.716015 6.32812 0.451953 6.82812 0.274219 7.36458C0.0914062 7.90625 0 8.46354 0 9.03125C0 9.60417 0.0914062 10.1563 0.274219 10.6979C0.451953 11.2396 0.716015 11.7344 1.05625 12.1823C1.39648 12.6354 1.80273 13.0156 2.26484 13.3281C2.73203 13.6406 3.23476 13.8698 3.77305 14.0104V37.4219C3.77305 37.5885 3.80352 37.7552 3.86953 37.9115C3.93555 38.0729 4.02695 38.2083 4.14375 38.3333C4.26055 38.4531 4.39766 38.5469 4.55 38.6094C4.70234 38.6771 4.86484 38.7083 5.03242 38.7083C5.2 38.7083 5.35742 38.6771 5.51484 38.6094C5.66719 38.5469 5.8043 38.4531 5.92109 38.3333C6.03789 38.2083 6.1293 38.0729 6.19531 37.9115C6.25625 37.7552 6.2918 37.5885 6.2918 37.4219ZM2.51367 9.03125C2.51367 8.6875 2.57969 8.35937 2.70664 8.04687C2.83359 7.72917 3.01641 7.44792 3.25508 7.20833C3.48867 6.96354 3.76289 6.78125 4.06758 6.64583C4.37734 6.51562 4.69726 6.45313 5.03242 6.45313C5.36758 6.45313 5.6875 6.51562 5.99727 6.64583C6.30195 6.78125 6.57617 6.96354 6.80977 7.20833C7.04844 7.44792 7.23125 7.72917 7.3582 8.04687C7.48516 8.35937 7.54609 8.6875 7.54609 9.03125C7.54609 9.375 7.48516 9.70312 7.3582 10.0208C7.23125 10.3385 7.04844 10.6146 6.80977 10.8594C6.57617 11.099 6.30195 11.2865 5.99727 11.4167C5.6875 11.5469 5.36758 11.6146 5.03242 11.6146C4.69726 11.6146 4.37734 11.5469 4.06758 11.4167C3.76289 11.2865 3.48867 11.099 3.25508 10.8594C3.01641 10.6146 2.83359 10.3385 2.70664 10.0208C2.57969 9.70312 2.51367 9.375 2.51367 9.03125Z"
       />
  </g>
  <defs>
    <clipPath id="clip0_102_1977">
      <rect width="39" height="40" fill="white" />
    </clipPath>
  </defs>
</svg>