<svg width="40" height="40" viewBox="0 0 40 40" fill="none" xmlns="http://www.w3.org/2000/svg">
<mask id="mask0_1_2047" style="mask-type:luminance" maskUnits="userSpaceOnUse" x="0" y="0" width="40" height="39">
<path d="M0.646484 0H39.3548V38.7083H0.646484V0Z" fill="white"/>
</mask>
<g mask="url(#mask0_1_2047)">
<path d="M30.9694 38.7083H9.0319C4.40169 38.7083 0.646484 34.9531 0.646484 30.3229V8.38542C0.646484 3.75521 4.40169 0 9.0319 0H30.9694C35.5996 0 39.3548 3.75521 39.3548 8.38542V30.3229C39.3548 34.9531 35.5996 38.7083 30.9694 38.7083Z" fill="#00B900"/>
</g>
<path d="M34.0312 17.6514C34.0312 11.3441 27.7083 6.21387 19.9375 6.21387C12.1667 6.21387 5.84375 11.3441 5.84375 17.6514C5.84375 23.3076 10.8594 28.042 17.6302 28.9378C18.0885 29.0368 18.7135 29.2399 18.8698 29.6305C19.0156 29.9899 18.9635 30.5472 18.9167 30.9066L18.7135 32.1149C18.6562 32.4691 18.4323 33.5055 19.9375 32.8701C21.4427 32.2399 28.0521 28.0941 31.0104 24.6878C33.0521 22.4482 34.0312 20.1774 34.0312 17.6514Z" fill="white"/>
<path d="M17.0729 14.6097H16.0833C15.9323 14.6097 15.8125 14.7295 15.8125 14.8805V21.0212C15.8125 21.1722 15.9323 21.292 16.0833 21.292H17.0729C17.224 21.292 17.349 21.1722 17.349 21.0212V14.8805C17.349 14.7295 17.224 14.6045 17.0729 14.6045M23.8802 14.6097H22.8854C22.7344 14.6097 22.6146 14.7295 22.6146 14.8805V18.5316L19.7969 14.7295C19.7917 14.7191 19.7813 14.7087 19.776 14.7035V14.6982L19.7552 14.6774L19.7396 14.667C19.7344 14.667 19.7344 14.6618 19.7292 14.6618L19.7187 14.6514C19.7135 14.6514 19.7135 14.6462 19.7083 14.6462L19.6927 14.6357H19.6875L19.6719 14.6253H19.6615C19.6562 14.6201 19.651 14.6201 19.6458 14.6201L19.6354 14.6149H19.6198C19.6146 14.6097 19.6094 14.6097 19.6094 14.6097C19.6042 14.6097 19.599 14.6097 19.5937 14.6097H19.5781C19.5729 14.6097 19.5729 14.6097 19.5677 14.6097H18.5833C18.4271 14.6097 18.3073 14.7295 18.3073 14.8805V21.0212C18.3073 21.1722 18.4271 21.2972 18.5833 21.2972H19.5677C19.7187 21.2972 19.8437 21.1722 19.8437 21.0212V17.3753L22.6615 21.1826C22.6823 21.2087 22.7031 21.2295 22.7292 21.2503C22.7344 21.2503 22.7344 21.2503 22.7344 21.2503L22.75 21.2607L22.7604 21.266C22.7656 21.266 22.7656 21.2712 22.7708 21.2712L22.7865 21.2764L22.7917 21.2816L22.8125 21.2868C22.8125 21.2868 22.8125 21.2868 22.8177 21.2868C22.8385 21.292 22.8646 21.2972 22.8854 21.2972H23.875C24.026 21.2972 24.151 21.1774 24.151 21.0264V14.8805C24.151 14.7295 24.026 14.6045 23.875 14.6045" fill="#00B900"/>
<path d="M14.6927 19.7555H12.0052V14.8805C12.0052 14.7295 11.8802 14.6045 11.7292 14.6045H10.7396C10.5885 14.6045 10.4688 14.7295 10.4688 14.8805V21.0212C10.4688 21.0941 10.4948 21.1566 10.5417 21.2087C10.5469 21.2087 10.5469 21.2139 10.5469 21.2139C10.5469 21.2139 10.5521 21.2139 10.5521 21.2191C10.6042 21.2659 10.6667 21.292 10.7396 21.292H14.6927C14.8438 21.292 14.9635 21.1722 14.9635 21.0212V20.0316C14.9635 19.8805 14.8438 19.7555 14.6927 19.7555ZM29.3385 16.141C29.4896 16.141 29.6094 16.0212 29.6094 15.8649V14.8805C29.6094 14.7295 29.4896 14.6045 29.3385 14.6045H25.3854C25.3125 14.6045 25.25 14.6305 25.1979 14.6826H25.1927C25.1927 14.6878 25.1927 14.6878 25.1875 14.6878C25.1458 14.7399 25.1146 14.8024 25.1146 14.8805V21.0212C25.1146 21.0941 25.1458 21.1618 25.1927 21.2087V21.2139L25.1979 21.2191C25.25 21.2659 25.3125 21.292 25.3854 21.292H29.3385C29.4896 21.292 29.6094 21.1722 29.6094 21.0212V20.0316C29.6094 19.8805 29.4896 19.7555 29.3385 19.7555H26.651V18.7191H29.3385C29.5208 18.7191 29.6146 18.6253 29.6146 18.443V17.4535C29.6146 17.3024 29.4948 17.1826 29.3385 17.1826H26.6562V16.141H29.3385Z" fill="#00B900"/>
</svg>
