<svg width="48" height="48" viewBox="0 0 48 48" fill="none" xmlns="http://www.w3.org/2000/svg">
<rect width="48" height="48" rx="24" fill="#2770AB"/>
<path d="M30.175 25H15C14.7167 25 14.4792 24.9042 14.2875 24.7125C14.0958 24.5209 14 24.2834 14 24C14 23.7167 14.0958 23.4792 14.2875 23.2875C14.4792 23.0959 14.7167 23 15 23H30.175L26.3 19.1C26.1167 18.9167 26.0208 18.6875 26.0125 18.4125C26.0042 18.1375 26.1 17.9 26.3 17.7C26.4833 17.5167 26.7167 17.425 27 17.425C27.2833 17.425 27.5167 17.5167 27.7 17.7L33.3 23.3C33.4 23.4 33.4708 23.5084 33.5125 23.625C33.5542 23.7417 33.575 23.8667 33.575 24C33.575 24.1334 33.5542 24.2584 33.5125 24.375C33.4708 24.4917 33.4 24.6 33.3 24.7L27.7 30.3C27.5167 30.4834 27.2875 30.575 27.0125 30.575C26.7375 30.575 26.5 30.4834 26.3 30.3C26.1 30.1 26 29.8625 26 29.5875C26 29.3125 26.1 29.075 26.3 28.875L30.175 25Z" fill="white"/>
</svg>
