<svg xmlns="http://www.w3.org/2000/svg" xmlns:xlink="http://www.w3.org/1999/xlink" width="40" zoomAndPan="magnify"
  viewBox="0 0 30 30.000001" height="40" preserveAspectRatio="xMidYMid meet" version="1.0">
  <defs>
    <clipPath id="e256ac941b">
      <path d="M 0.484375 0 L 29.515625 0 L 29.515625 29 L 0.484375 29 Z M 0.484375 0 " clip-rule="nonzero" />
    </clipPath>
  </defs>
  <g clip-path="url(#e256ac941b)">
    <path fill="#2770ab"
      d="M 29.515625 14.398438 C 29.515625 6.40625 23.03125 -0.078125 15.039062 -0.078125 C 7.046875 -0.078125 0.5625 6.40625 0.5625 14.398438 C 0.5625 22.394531 7.046875 28.878906 15.039062 28.878906 C 23.03125 28.878906 29.515625 22.394531 29.515625 14.398438 Z M 29.515625 14.398438 "
      fill-opacity="1" fill-rule="evenodd" />
  </g>
  <path fill="#ffffff"
    d="M 15.039062 8.03125 C 14.886719 8.03125 14.742188 8.085938 14.628906 8.199219 L 8.835938 13.988281 C 8.613281 14.21875 8.613281 14.582031 8.835938 14.808594 L 14.628906 20.601562 C 14.742188 20.714844 14.886719 20.769531 15.039062 20.769531 L 19.671875 20.769531 C 19.820312 20.769531 19.96875 20.714844 20.082031 20.601562 C 20.304688 20.371094 20.304688 20.011719 20.082031 19.78125 L 14.699219 14.398438 L 20.082031 9.019531 C 20.304688 8.789062 20.304688 8.429688 20.082031 8.199219 C 19.96875 8.085938 19.820312 8.03125 19.671875 8.03125 Z M 15.039062 8.03125 "
    fill-opacity="1" fill-rule="evenodd" />
</svg>