<svg xmlns="http://www.w3.org/2000/svg" xmlns:xlink="http://www.w3.org/1999/xlink" width="40" zoomAndPan="magnify"
  viewBox="0 0 30 30.000001" height="40" preserveAspectRatio="xMidYMid meet" version="1.0">
  <defs>
    <clipPath id="7cc3eaf9fb">
      <path d="M 0.484375 0 L 29.515625 0 L 29.515625 29 L 0.484375 29 Z M 0.484375 0 " clip-rule="nonzero" />
    </clipPath>
  </defs>
  <g clip-path="url(#7cc3eaf9fb)">
    <path fill="#2770ab"
      d="M 0.484375 14.398438 C 0.484375 6.40625 6.96875 -0.078125 14.960938 -0.078125 C 22.953125 -0.078125 29.4375 6.40625 29.4375 14.398438 C 29.4375 22.394531 22.953125 28.878906 14.960938 28.878906 C 6.96875 28.878906 0.484375 22.394531 0.484375 14.398438 Z M 0.484375 14.398438 "
      fill-opacity="1" fill-rule="evenodd" />
  </g>
  <path fill="#ffffff"
    d="M 14.960938 8.03125 C 15.113281 8.03125 15.257812 8.085938 15.371094 8.199219 L 21.164062 13.988281 C 21.386719 14.21875 21.386719 14.582031 21.164062 14.808594 L 15.371094 20.601562 C 15.257812 20.714844 15.113281 20.769531 14.960938 20.769531 L 10.328125 20.769531 C 10.179688 20.769531 10.03125 20.714844 9.917969 20.601562 C 9.695312 20.371094 9.695312 20.011719 9.917969 19.78125 L 15.300781 14.398438 L 9.917969 9.019531 C 9.695312 8.789062 9.695312 8.429688 9.917969 8.199219 C 10.03125 8.085938 10.179688 8.03125 10.328125 8.03125 Z M 14.960938 8.03125 "
    fill-opacity="1" fill-rule="evenodd" />
</svg>